<svg id="Layer_1" data-name="Layer 1" xmlns="http://www.w3.org/2000/svg" viewBox="0 0 381.68 200.13"><defs><style>.cls-1{fill:#fff;stroke:#fff;}.cls-1,.cls-2{stroke-miterlimit:10;}.cls-2{fill:none;stroke:#e2d2a4;stroke-linecap:round;stroke-width:8.84px;}</style></defs><path class="cls-1" d="M390.81,198.23l-42.23-73.14,42-72.81a8,8,0,0,0-13.86-8l-37.41,64.81V48a8,8,0,0,0-16,0V202a8,8,0,0,0,16,0V141.1h0L377,206.23a8,8,0,1,0,13.86-8Z" transform="translate(-10.7 -18.64)"/><path class="cls-1" d="M138,193.84H111.86V48a8,8,0,0,0-8-8h0a8,8,0,0,0-8,8V202a8,8,0,0,0,8,8h0a8.72,8.72,0,0,0,1.62-.16H138a8,8,0,0,0,0-16Z" transform="translate(-10.7 -18.64)"/><path class="cls-1" d="M82.19,200.94V111.82a8,8,0,0,0-4.75-7.3V49a8.14,8.14,0,0,0,0-.87,8,8,0,0,0-9-8H21.8A8.24,8.24,0,0,0,20.38,40h0a8,8,0,0,0-8,8V200.94a9.25,9.25,0,0,0-.09,1.19,8,8,0,0,0,8,8h54a8,8,0,0,0,8-8A7.74,7.74,0,0,0,82.19,200.94Zm-20.75-97.2H28.38V56.13H61.44Zm-33.06,16H66.19v74.39H28.38Z" transform="translate(-10.7 -18.64)"/><path class="cls-1" d="M202.93,194h-31V137H198a8,8,0,0,0,8-8h0a8,8,0,0,0-8-8H171.9V56h31a8,8,0,0,0,8-8h0a8,8,0,0,0-8-8h-39a8,8,0,0,0-8,8h0c0,.18,0,.36,0,.54V202a8.06,8.06,0,0,0,8,8h39a8,8,0,0,0,0-16Z" transform="translate(-10.7 -18.64)"/><path class="cls-1" d="M296.91,39.6a8,8,0,0,0-8,8V160.53L241.84,46.34A8.07,8.07,0,0,0,226,49.52V202a8,8,0,0,0,16,0V88.74l47,114a8,8,0,0,0,15.91-1.12V47.6A8,8,0,0,0,296.91,39.6Z" transform="translate(-10.7 -18.64)"/><path class="cls-2" d="M15.12,80.61Q18,79.2,20.71,78.12A41.47,41.47,0,0,1,26,76.48a32,32,0,0,1,9.59-1A28.42,28.42,0,0,1,51.67,82c9.61,7.81,17.31,21.86,25,37.9s15.39,34,25,49.48c9.62,15.33,21.16,28.48,36.55,32.25a29.23,29.23,0,0,0,10.85.7,26.52,26.52,0,0,0,9.59-3.45,37.89,37.89,0,0,0,8.51-7,70.16,70.16,0,0,0,7.6-10.27c9.62-15.59,17.31-38.26,25-61.69s15.39-47.63,25-65.91c4.81-9.16,10.1-17,16.11-22.31a35.71,35.71,0,0,1,9.59-6.32,28,28,0,0,1,10.85-2.25c15.39-.14,26.93,11.8,36.55,30s17.31,42.44,25,66.83,15.39,48.77,25,66.69c4.81,9,10.1,16.31,16.12,21.23s12.74,7.34,20.44,6.37" transform="translate(-10.7 -18.64)"/></svg>